<?xml version="1.0" standalone="no"?>
<!DOCTYPE svg PUBLIC "-//W3C//DTD SVG 20010904//EN"
 "http://www.w3.org/TR/2001/REC-SVG-20010904/DTD/svg10.dtd">
<svg version="1.0" xmlns="http://www.w3.org/2000/svg"
 width="198.000000pt" height="180.000000pt" viewBox="0 0 198.000000 180.000000"
 preserveAspectRatio="xMidYMid meet">

<g transform="translate(0.000000,180.000000) scale(0.100000,-0.100000)"
fill="#000000" stroke="none">
<path d="M606 1485 l-25 -55 -75 0 c-70 0 -76 -2 -118 -36 -23 -20 -60 -53
-80 -75 l-38 -38 0 -477 0 -476 34 -34 34 -34 605 0 605 0 44 36 c23 20 60 53
81 75 l37 38 0 477 0 476 -34 34 -34 34 -101 0 -101 0 0 55 0 55 -58 0 -58 0
-23 -55 -23 -55 -264 0 -264 0 0 55 0 55 -59 0 -60 0 -25 -55z m15 -48 c-13
-13 -15 1 -4 30 7 17 8 17 11 -1 2 -10 -1 -23 -7 -29z m695 -4 c-11 -11 -17 4
-9 23 7 18 8 18 11 1 2 -10 1 -21 -2 -24z m-938 -1040 c30 -53 25 -53 654 -53
380 0 578 -4 568 -10 -21 -14 -1195 -13 -1221 0 -48 26 -49 39 -49 514 0 334
3 452 13 473 10 23 13 -54 17 -437 4 -352 8 -470 18 -487z m-50 -40 c31 -55 8
-53 646 -53 472 0 588 -3 578 -12 -10 -10 -143 -14 -580 -16 -312 -2 -582 0
-601 3 -18 4 -44 17 -57 30 l-24 24 0 470 c0 258 3 478 8 488 4 10 9 -191 12
-447 4 -347 8 -471 18 -487z m1280 818 l82 -1 0 -377 c-1 -281 -4 -382 -13
-394 -29 -38 -40 -39 -647 -39 l-592 0 -29 29 -29 29 0 376 0 376 223 2 c206
3 815 2 1005 -1z"/>
<path d="M519 1031 l-29 -29 0 -247 0 -246 25 -24 24 -25 496 0 496 0 24 25
25 24 0 248 c-1 179 -4 252 -13 264 -29 38 -44 39 -537 39 l-482 0 -29 -29z
m186 0 c3 -6 3 -46 -1 -90 l-7 -81 -93 0 -94 0 0 70 c0 97 14 110 114 110 41
0 77 -4 81 -9z m215 -81 l0 -91 -97 3 -98 3 -3 88 -3 87 101 0 100 0 0 -90z
m210 0 l0 -90 -95 0 -95 0 0 90 0 90 95 0 95 0 0 -90z m218 3 l-3 -88 -95 0
-95 0 -3 88 -3 87 101 0 101 0 -3 -87z m190 71 c19 -13 22 -24 22 -90 l0 -74
-95 0 -95 0 0 90 0 90 73 0 c49 0 80 -5 95 -16z m-833 -206 c4 -18 5 -58 3
-88 l-3 -55 -97 -3 -98 -3 0 91 0 90 95 0 94 0 6 -32z m215 -58 l0 -90 -100 0
-100 0 0 83 c0 46 3 87 7 90 3 4 48 7 100 7 l93 0 0 -90z m210 0 l0 -90 -95 0
-95 0 0 90 0 90 95 0 95 0 0 -90z m218 -2 l3 -88 -101 0 -100 0 0 83 c0 46 3
87 7 91 4 4 48 5 98 4 l90 -3 3 -87z m212 2 l0 -90 -95 0 -95 0 0 90 0 90 95
0 95 0 0 -90z m-857 -192 c4 -45 3 -86 -2 -91 -5 -5 -41 -8 -79 -5 -97 5 -112
19 -112 110 l0 68 94 0 93 0 6 -82z m215 -5 l-3 -88 -95 0 -95 0 -3 88 -3 87
101 0 101 0 -3 -87z m212 -3 l0 -90 -95 0 -95 0 0 90 0 90 95 0 95 0 0 -90z
m218 3 l-3 -88 -95 0 -95 0 -3 88 -3 87 101 0 101 0 -3 -87z m212 20 c0 -38
-4 -73 -8 -79 -15 -23 -53 -34 -116 -34 l-66 0 0 90 0 90 95 0 95 0 0 -67z"/>
</g>
</svg>
